<svg viewBox="0 0 24 24" fill="none" xmlns="http://www.w3.org/2000/svg">
    <path d="M16.1155 12.5557C16.1155 12.5557 15.9356 12.1601 15.8356 11.9623L13.0366 5.88981L11.8771 7.74913L9.53793 3.59534L5.59937 11.8634C5.47942 12.0809 5.37945 12.2985 5.27949 12.5161C5.01959 13.1688 4.87964 13.8809 4.87964 14.6326C4.87964 17.8171 7.47868 20.3885 10.6975 20.3885C13.9163 20.3885 16.5154 17.8171 16.5154 14.6326C16.5154 13.9007 16.3754 13.2084 16.1155 12.5557V12.5557Z" fill="#F8E390"/>
    <path d="M10.6975 18.1137C7.87854 18.1137 5.5394 16.1357 4.99959 13.505C4.91962 13.8808 4.87964 14.2566 4.87964 14.6522C4.87964 17.8368 7.47868 20.4082 10.6975 20.4082C13.9163 20.4082 16.5154 17.8368 16.5154 14.6522C16.5154 14.2566 16.4754 13.8808 16.3954 13.505C15.8556 16.1357 13.5165 18.1137 10.6975 18.1137V18.1137Z" fill="#FFA169"/>
    <path d="M10.6975 18.1137C9.09811 18.1137 7.77859 16.828 7.77859 15.2259C7.77859 14.8698 7.83857 14.5336 7.97852 14.1973C8.0385 14.0588 8.09848 13.9204 8.13846 13.861L8.17845 13.7819L8.37837 13.3665L9.47797 15.0874L11.8371 10.8743L13.1966 13.7226L13.2566 13.8413C13.3166 13.9402 13.3565 14.0391 13.4165 14.1577C13.5565 14.494 13.6165 14.85 13.6165 15.2259C13.6165 16.8083 12.3169 18.1137 10.6975 18.1137Z" fill="white"/>
    <path d="M10.6975 21.0016C7.15885 21.0016 4.27991 18.1533 4.27991 14.6523C4.27991 13.8611 4.41986 13.0699 4.71975 12.338C4.71975 12.338 4.71975 12.338 4.71975 12.3182C4.81971 12.0611 4.93966 11.8237 5.05962 11.6062L8.99817 3.33814C9.09814 3.14034 9.29806 3.00188 9.51798 3.00188C9.7379 2.9821 9.95782 3.12056 10.0578 3.29858L11.8971 6.56228L12.5169 5.57328C12.6368 5.39526 12.8368 5.27658 13.0567 5.29636C13.2766 5.31614 13.4765 5.43482 13.5565 5.63262L16.3955 11.7051C16.4954 11.9029 16.6554 12.2787 16.6753 12.3182C16.6753 12.338 16.6953 12.3578 16.6953 12.3776C16.9752 13.1094 17.1152 13.8611 17.1152 14.6523C17.1152 18.1533 14.2362 21.0016 10.6975 21.0016V21.0016ZM5.6761 12.6718C5.6761 12.6923 5.6761 12.6923 5.6761 12.6718C5.42727 13.3077 5.30286 13.9642 5.30286 14.6617C5.30286 17.6158 7.72887 20.0159 10.7147 20.0159C13.7006 20.0159 16.1266 17.6158 16.1266 14.6617C16.1266 13.9847 16.0022 13.3282 15.7533 12.7128V12.6923C15.6911 12.5487 15.5667 12.282 15.5045 12.1794C15.5045 12.1794 15.5045 12.1589 15.4838 12.1589L13.037 6.86616L12.4357 7.80982C12.3113 7.99445 12.104 8.09703 11.8966 8.09703C11.6685 8.09703 11.4819 7.97394 11.3782 7.78931L9.55356 4.54802L5.98712 12.0358C5.98712 12.0563 5.96639 12.0563 5.96639 12.0768C5.86271 12.2615 5.75904 12.4666 5.6761 12.6718V12.6718Z" fill="#121212"/>
    <path d="M16.1155 21.0395H4.59978C4.2599 21.0395 4 20.826 4 20.5467C4 20.2674 4.2599 20.0538 4.59978 20.0538H16.1155C16.4554 20.0538 16.7153 20.2674 16.7153 20.5467C16.7153 20.826 16.4554 21.0395 16.1155 21.0395Z" fill="#121212"/>
    <path d="M18.8568 21.0015C18.7282 21.0015 18.5997 20.9538 18.5193 20.8584C18.4229 20.763 18.3747 20.6517 18.3747 20.5246C18.3747 20.4928 18.3747 20.461 18.3908 20.4292C18.3908 20.3974 18.4068 20.3656 18.4229 20.3338C18.439 20.302 18.455 20.2861 18.4711 20.2543C18.4872 20.2225 18.5033 20.2066 18.5354 20.1907C18.6479 20.0794 18.8086 20.0317 18.9693 20.0635C19.0014 20.0635 19.0335 20.0794 19.0657 20.0953C19.0978 20.1112 19.1139 20.1271 19.146 20.143C19.1782 20.1589 19.1942 20.1748 19.2264 20.2066C19.3228 20.302 19.371 20.4133 19.371 20.5405C19.371 20.6676 19.3228 20.7948 19.2264 20.8743C19.1139 20.9538 18.9853 21.0015 18.8568 21.0015V21.0015Z" fill="#121212"/>
    </svg>
    