<svg width="32" height="32" viewBox="0 0 32 32" fill="none" xmlns="http://www.w3.org/2000/svg">
    <path d="M19.543 31.998H7.11901C4.18501 31.998 1.78101 29.626 1.78101 26.723V8.30495C1.78101 5.87095 3.34201 3.84095 5.65201 3.27995C5.77701 1.46995 7.33801 0.0329531 9.17901 0.0329531C10.989 0.0329531 12.519 1.25095 12.738 2.96695H19.262C19.481 1.25095 20.854 0.00195312 22.665 0.00195312C24.537 0.00195312 25.911 1.46895 26.067 3.27995C28.377 3.84095 30.219 5.90195 30.219 8.33695V21.322C30.219 26.598 24.881 31.998 19.543 31.998ZM19.543 29.313C23.445 29.313 27.534 25.318 27.534 21.478V20.636C26.723 21.166 25.817 21.322 24.881 21.322H22.228C22.228 21.322 19.543 21.478 19.543 24.1V26.723C19.543 27.628 19.2 28.502 18.669 29.313H19.543ZM10.678 3.52995C10.678 2.78095 10.085 2.21995 9.33501 2.21995C8.61801 2.21995 7.99301 2.78095 7.99301 3.52995V4.40395C7.99301 5.12195 8.61801 5.71495 9.33501 5.71495C10.085 5.71495 10.678 5.12195 10.678 4.40495V3.52995ZM23.976 3.52995C23.976 2.78095 23.383 2.21995 22.665 2.21995C21.915 2.21995 21.322 2.78095 21.322 3.52995V4.40395C21.322 5.12195 21.915 5.71495 22.665 5.71495C23.382 5.71495 23.975 5.12195 23.975 4.40495V3.52995H23.976ZM27.534 10.96H25.068C23.9811 9.58285 22.5963 8.46992 21.0176 7.70475C19.4389 6.93958 17.7074 6.54207 15.953 6.54207C14.1987 6.54207 12.4671 6.93958 10.8884 7.70475C9.3097 8.46992 7.9249 9.58285 6.83801 10.96H4.46601V26.66C4.46601 28.096 5.65201 29.313 7.11901 29.313H14.236C14.236 29.313 16.89 29.345 16.89 26.723V23.226C16.89 20.604 19.543 18.95 22.228 18.95H24.881C27.534 18.95 27.534 16.297 27.534 16.297V10.959V10.96ZM21.915 16.298C21.5206 14.8479 20.6113 13.5913 19.3574 12.7632C18.1034 11.935 16.5907 11.5922 15.1023 11.7987C13.6138 12.0053 12.2516 12.7471 11.2705 13.8853C10.2894 15.0236 9.75671 16.4803 9.77201 17.983C9.77201 20.73 11.645 23.103 14.236 23.852V26.567C12.2411 26.1777 10.4424 25.1102 9.14509 23.5455C7.84782 21.9808 7.13195 20.0154 7.11901 17.983C7.17987 15.8309 8.0245 13.7752 9.4942 12.202C10.9639 10.6289 12.9575 9.64652 15.1004 9.4396C17.2433 9.23267 19.388 9.81541 21.1316 11.0783C22.8751 12.3412 24.0975 14.1973 24.569 16.298H21.915ZM11.989 17.983C11.989 17.609 12.082 17.265 12.176 16.922C12.4261 17.2521 12.7725 17.4963 13.1675 17.6209C13.5624 17.7456 13.9863 17.7444 14.3806 17.6175C14.7748 17.4907 15.1199 17.2445 15.3681 16.9129C15.6163 16.5814 15.7553 16.181 15.766 15.767C15.766 15.111 15.454 14.549 14.954 14.175C15.9025 13.9129 16.9143 14.0101 17.7955 14.4478C18.6768 14.8855 19.3656 15.6329 19.73 16.547C17.108 17.327 15.08 19.232 14.455 21.604C13.019 21.011 11.989 19.606 11.989 17.984V17.983Z" fill="black"/>
</svg>
    