<svg viewBox="0 0 24 24" fill="none" xmlns="http://www.w3.org/2000/svg">
    <path d="M10.8574 17.4126L7.16684 19.9233C6.38163 20.4599 5.36084 19.7316 5.63567 18.8308L6.93128 14.6335C7.04906 14.2502 6.91165 13.8094 6.57793 13.5603L2.98557 10.8962C2.21998 10.3404 2.61259 9.15213 3.57448 9.13296L8.06984 9.03714C8.48208 9.03714 8.85506 8.76882 8.99247 8.3855L10.4844 4.24569C10.7985 3.36407 12.0744 3.36407 12.3885 4.24569L13.8608 8.3855C13.9982 8.76882 14.3712 9.03714 14.7834 9.03714L19.2788 9.13296C20.2407 9.15213 20.6333 10.3404 19.8677 10.8962L16.2753 13.5603C15.9416 13.8094 15.8042 14.2311 15.922 14.6335L17.2176 18.8308C17.4924 19.7125 16.4716 20.4599 15.6864 19.9233L11.9959 17.4126C11.6622 17.1634 11.1911 17.1634 10.8574 17.4126Z" fill="white"/>
    <path d="M12.5939 17.6042L8.90337 20.1149C8.11815 20.6516 7.09737 19.9233 7.3722 19.0225L8.6678 14.8252C8.78559 14.4419 8.64817 14.0011 8.31446 13.7519L4.72209 11.0879C3.95651 10.5321 4.34912 9.34378 5.311 9.32461L9.80637 9.22879C10.2186 9.22879 10.5916 8.96047 10.729 8.57715L12.2209 4.43734C12.535 3.55572 13.811 3.55572 14.1251 4.43734L15.5973 8.57715C15.7347 8.96047 16.1077 9.22879 16.52 9.22879L21.0153 9.32461C21.9772 9.34378 22.3698 10.5321 21.6042 11.0879L18.0315 13.7327C17.6978 13.9819 17.5604 14.4035 17.6782 14.806L18.9738 19.0033C19.2486 19.885 18.2278 20.6324 17.4426 20.0958L13.7324 17.6042C13.3987 17.3551 12.9276 17.3551 12.5939 17.6042V17.6042Z" fill="#FFD88B"/>
    <path d="M6.59757 20.6708C6.26385 20.6708 5.94977 20.575 5.65531 20.3642C5.10566 19.9617 4.8701 19.2909 5.0664 18.6584L6.36201 14.4611C6.4209 14.3078 6.36201 14.1162 6.22459 14.0203L2.63223 11.3563C2.08258 10.9538 1.86664 10.283 2.08258 9.63136C2.29851 8.99889 2.86779 8.57724 3.57449 8.55808L8.06985 8.46225C8.24652 8.46225 8.40357 8.34725 8.46246 8.19393L9.91511 4.05412C10.1507 3.42165 10.7396 3 11.4266 3C12.1137 3 12.7026 3.40248 12.9382 4.05412L14.4105 8.19393C14.4694 8.34725 14.6264 8.46225 14.8031 8.46225L19.2984 8.55808C19.9855 8.57724 20.5744 8.99889 20.7903 9.63136C21.0063 10.2638 20.7904 10.9538 20.2407 11.3563L16.6287 14.0203C16.4913 14.1162 16.4324 14.3078 16.4913 14.4611L17.7869 18.6584C17.9832 19.3101 17.7476 19.9809 17.198 20.3642C16.6483 20.7667 15.922 20.7667 15.3527 20.3834L11.6622 17.8726C11.5248 17.7768 11.3285 17.7768 11.1911 17.8726L7.50057 20.3834C7.22574 20.575 6.91166 20.6708 6.59757 20.6708V20.6708ZM11.4266 4.16911C11.3481 4.16911 11.1322 4.18828 11.034 4.43743L9.56176 8.57724C9.34583 9.19055 8.75691 9.61219 8.08948 9.63136L3.59412 9.72719C3.31929 9.72719 3.22114 9.93801 3.20151 10.0147C3.18188 10.0722 3.12299 10.3022 3.33892 10.4555L6.91166 13.1004C7.44168 13.4837 7.65761 14.1736 7.48094 14.787L6.18533 18.9843C6.10681 19.2334 6.28348 19.3867 6.34238 19.4251C6.40127 19.4634 6.59757 19.5784 6.83314 19.4251L10.5237 16.9144C11.0733 16.5502 11.7996 16.5502 12.3493 16.9144L16.0398 19.4251C16.2557 19.5784 16.4717 19.4634 16.5306 19.4251C16.5894 19.3867 16.7661 19.2334 16.6876 18.9843L15.3527 14.787C15.1564 14.1736 15.392 13.4837 15.922 13.1004L19.4947 10.4555C19.7107 10.3022 19.6518 10.0722 19.6322 10.0147C19.6125 9.95718 19.5144 9.74635 19.2395 9.72719L14.7638 9.63136C14.0964 9.61219 13.5075 9.19055 13.2915 8.57724L11.8193 4.43743C11.7211 4.18828 11.5052 4.16911 11.4266 4.16911V4.16911Z" fill="#121212"/>
    </svg>
    